<svg width="45" height="45" viewBox="0 0 45 45" fill="none" xmlns="http://www.w3.org/2000/svg">
<path d="M9.32811 7.4624L5.59692 11.1936" stroke="currentColor" stroke-width="3.73119" stroke-linecap="round"/>
<path d="M35.4463 7.4624L39.1775 11.1936" stroke="currentColor" stroke-width="3.73119" stroke-linecap="round"/>
<path fill-rule="evenodd" clip-rule="evenodd" d="M22.3872 37.3119C30.6299 37.3119 37.3119 30.6299 37.3119 22.3872C37.3119 14.1444 30.6299 7.4624 22.3872 7.4624C14.1444 7.4624 7.4624 14.1444 7.4624 22.3872C7.4624 30.6299 14.1444 37.3119 22.3872 37.3119ZM27.5752 18.8886C28.2188 18.084 28.0884 16.91 27.2838 16.2664C26.4792 15.6227 25.3052 15.7532 24.6616 16.5577L21.9989 19.8861L17.8252 17.1037C16.9679 16.5321 15.8097 16.7638 15.2381 17.6211C14.6666 18.4784 14.8983 19.6367 15.7555 20.2082L20.9965 23.7022C22.003 24.3732 23.3554 24.1632 24.1111 23.2187L27.5752 18.8886Z" fill="currentColor"/>
</svg>
