<svg width="35" height="36" viewBox="0 0 35 36" fill="none" xmlns="http://www.w3.org/2000/svg">
<path fill-rule="evenodd" clip-rule="evenodd" d="M30.625 8.99988H4.375V13.4999C5.98583 13.4999 7.29167 14.8057 7.29167 16.4165V21.2915C7.29167 25.6172 7.29167 27.78 8.42327 29.2774C8.73479 29.6897 9.10189 30.0568 9.51411 30.3683C11.0115 31.4999 13.1744 31.4999 17.5 31.4999C21.8256 31.4999 23.9885 31.4999 25.4859 30.3683C25.8981 30.0568 26.2652 29.6897 26.5767 29.2774C27.7083 27.78 27.7083 25.6172 27.7083 21.2915V16.4165C27.7083 14.8057 29.0142 13.4999 30.625 13.4999V8.99988ZM15.7198 16.4999C15.7198 15.4696 14.8845 14.6343 13.8542 14.6343C12.8238 14.6343 11.9886 15.4696 11.9886 16.4999V23.9999C11.9886 25.0303 12.8238 25.8655 13.8542 25.8655C14.8845 25.8655 15.7198 25.0303 15.7198 23.9999V16.4999ZM23.0114 16.4999C23.0114 15.4696 22.1762 14.6343 21.1459 14.6343C20.1155 14.6343 19.2803 15.4696 19.2803 16.4999V23.9999C19.2803 25.0303 20.1155 25.8655 21.1459 25.8655C22.1762 25.8655 23.0114 25.0303 23.0114 23.9999V16.4999Z" fill="currentColor"/>
<path d="M14.6826 5.05576C14.8487 4.89629 15.2149 4.75537 15.7243 4.65486C16.2337 4.55436 16.8578 4.49988 17.4998 4.49988C18.1419 4.49988 18.766 4.55436 19.2754 4.65486C19.7848 4.75537 20.1509 4.89629 20.3171 5.05576" stroke="currentColor" stroke-width="3.73119" stroke-linecap="round"/>
</svg>
