<svg width="45" height="45" viewBox="0 0 45 45" fill="none" xmlns="http://www.w3.org/2000/svg">
<path fill-rule="evenodd" clip-rule="evenodd" d="M5.59677 19.4022C5.59677 15.2229 5.59677 13.1332 6.41012 11.5369C7.12557 10.1328 8.26717 8.9912 9.6713 8.27575C11.2676 7.4624 13.3573 7.4624 17.5366 7.4624H27.2377C31.417 7.4624 33.5067 7.4624 35.103 8.27575C36.5071 8.9912 37.6487 10.1328 38.3641 11.5369C39.1775 13.1332 39.1775 15.2229 39.1775 19.4022V21.6409C39.1775 25.8203 39.1775 27.9099 38.3641 29.5062C37.6487 30.9103 36.5071 32.0519 35.103 32.7674C33.5067 33.5807 31.417 33.5807 27.2377 33.5807H13.8317C13.337 33.5807 12.8624 33.7773 12.5126 34.1272L8.78145 37.8583C7.60619 39.0335 5.59668 38.2012 5.59668 36.5391V33.5807V24.2527L5.59673 24.2527L5.59677 24.2526V19.4022ZM16.7902 14.9247C15.7598 14.9247 14.9246 15.76 14.9246 16.7903C14.9246 17.8206 15.7598 18.6559 16.7902 18.6559H27.9837C29.0141 18.6559 29.8493 17.8206 29.8493 16.7903C29.8493 15.76 29.0141 14.9247 27.9837 14.9247H16.7902ZM16.7902 22.3871C15.7598 22.3871 14.9246 23.2223 14.9246 24.2527C14.9246 25.283 15.7598 26.1183 16.7902 26.1183H22.3869C23.4173 26.1183 24.2525 25.283 24.2525 24.2527C24.2525 23.2223 23.4173 22.3871 22.3869 22.3871H16.7902Z" fill="currentColor"/>
</svg>
