<svg width="32" height="32" viewBox="0 0 32 32" fill="none" xmlns="http://www.w3.org/2000/svg">
<path fill-rule="evenodd" clip-rule="evenodd" d="M23.3294 14.0036L25.3333 11.9997C25.3596 11.9734 25.3728 11.9602 25.3838 11.949C26.8114 10.4971 26.8114 8.16884 25.3838 6.71697C25.3728 6.70577 25.3596 6.69265 25.3334 6.66642L25.3333 6.66632C25.307 6.64003 25.2939 6.62689 25.2827 6.61586C23.8308 5.18827 21.5025 5.18827 20.0506 6.61586C20.0394 6.62689 20.0263 6.64003 20 6.66632L17.9646 8.70167C19.2292 10.9179 21.0826 12.7569 23.3294 14.0036ZM15.2506 11.4157L6.93098 19.7353C6.13799 20.5283 5.74149 20.9248 5.48081 21.4119C5.22012 21.899 5.11015 22.4489 4.89021 23.5485L4.2744 26.6276C4.15029 27.2481 4.08824 27.5584 4.26474 27.7349C4.44124 27.9114 4.7515 27.8494 5.37201 27.7253L8.45111 27.1094C9.55079 26.8895 10.1006 26.7795 10.5877 26.5188C11.0748 26.2582 11.4713 25.8617 12.2643 25.0687L20.6083 16.7247C18.4573 15.3567 16.6312 13.5428 15.2506 11.4157Z" fill="currentColor"/>
</svg>
